<svg width="72" height="72" viewBox="0 0 72 72" fill="none" xmlns="http://www.w3.org/2000/svg">
<path d="M12.1563 0H59.8437C67.068 0 72.9204 5.85239 72.9204 13.0767V58.9233C72.9204 66.1476 67.068 72 59.8437 72H12.1563C4.93198 72 -0.92041 66.1476 -0.92041 58.9233V13.0767C-0.92041 5.85239 4.93198 0 12.1563 0Z" fill="#001E36"/>
<path d="M15.699 50.4834V18.825C15.699 18.6166 15.7858 18.495 16.0116 18.495C16.5325 18.495 17.0188 18.495 17.7308 18.4603C18.4776 18.4256 19.2417 18.4256 20.0752 18.3908C20.9088 18.3561 21.7945 18.3561 22.7496 18.3214C23.7048 18.2866 24.6252 18.2866 25.5456 18.2866C28.0637 18.2866 30.165 18.5992 31.8842 19.2418C33.4298 19.7627 34.8365 20.631 36 21.7598C36.9899 22.7497 37.754 23.948 38.2402 25.2678C38.7091 26.5529 38.9522 27.8901 38.9522 29.262C38.9522 31.9017 38.3444 34.0898 37.1114 35.8091C35.8784 37.5283 34.1592 38.8308 32.1621 39.5601C30.0781 40.3242 27.7684 40.6021 25.233 40.6021C24.4862 40.6021 24 40.6021 23.6874 40.5674C23.3748 40.5326 22.9407 40.5326 22.3676 40.5326V50.414C22.4023 50.6224 22.246 50.8134 22.0376 50.8481C22.0029 50.8481 21.9681 50.8481 21.916 50.8481H16.0637C15.8205 50.8829 15.699 50.7613 15.699 50.4834ZM22.4023 24.4342V34.7671C22.8365 34.8018 23.2359 34.8365 23.6006 34.8365H25.233C26.4312 34.8365 27.6295 34.6455 28.7757 34.2808C29.7655 34.003 30.6165 33.4125 31.2938 32.6484C31.9363 31.8843 32.2489 30.825 32.2489 29.4878C32.2836 28.5326 32.0405 27.5775 31.5369 26.7439C31.0159 25.9451 30.2692 25.3373 29.3835 24.99C28.2373 24.5211 27.0217 24.3474 25.754 24.3821C24.9551 24.3821 24.2431 24.3821 23.67 24.4169C23.0448 24.3648 22.6107 24.3995 22.4023 24.4342Z" fill="#31A8FF"/>
<path d="M58.1592 32.8916C57.2388 32.4053 56.249 32.058 55.207 31.8496C54.0608 31.6065 52.932 31.4502 51.7685 31.4502C51.1607 31.4154 50.5008 31.5196 49.9277 31.6586C49.5283 31.7454 49.1809 31.9711 48.9725 32.2664C48.8163 32.5095 48.7294 32.8221 48.7294 33.0999C48.7294 33.3778 48.851 33.6557 49.042 33.8988C49.3199 34.2287 49.6846 34.5066 50.084 34.7324C50.796 35.0971 51.5254 35.4444 52.2721 35.7396C53.9393 36.2953 55.5369 37.0594 57.0131 37.9798C58.0203 38.6224 58.8539 39.4907 59.4443 40.5327C59.9306 41.5225 60.1911 42.5992 60.1563 43.6933C60.1911 45.1347 59.7569 46.5934 58.9581 47.7917C58.0898 49.0247 56.8915 49.9798 55.5196 50.5356C54.0087 51.1781 52.1679 51.5254 49.945 51.5254C48.5384 51.5254 47.1491 51.4039 45.7598 51.126C44.6831 50.935 43.6064 50.605 42.6165 50.1361C42.4081 50.0146 42.2519 49.8062 42.2866 49.5457V44.1969C42.2866 44.1101 42.3213 43.9885 42.4081 43.9191C42.495 43.8496 42.5992 43.8843 42.686 43.9538C43.8843 44.6658 45.152 45.152 46.5066 45.4646C47.6701 45.7772 48.9031 45.9335 50.1361 45.9335C51.2996 45.9335 52.1332 45.7772 52.6889 45.4994C53.1752 45.291 53.5225 44.7526 53.5225 44.2143C53.5225 43.7801 53.2793 43.3807 52.7757 42.9813C52.2895 42.5819 51.2649 42.113 49.754 41.5399C48.1911 40.9842 46.7323 40.2548 45.3778 39.317C44.4226 38.6397 43.6238 37.7541 43.0333 36.6947C42.5471 35.7049 42.2866 34.6282 42.3213 33.5515C42.3213 32.2316 42.686 30.9639 43.3633 29.8351C44.1274 28.6021 45.2736 27.6122 46.5934 27.0044C48.0348 26.2577 49.8582 25.9277 52.0463 25.9277C53.3141 25.9277 54.5992 26.0146 55.8669 26.2056C56.7873 26.3272 57.6903 26.5703 58.5066 26.9176C58.6281 26.9523 58.7497 27.0739 58.8191 27.1955C58.8539 27.317 58.8886 27.4386 58.8886 27.5602V32.579C58.8886 32.7005 58.8191 32.8221 58.7323 32.8916C58.4371 32.961 58.2808 32.961 58.1592 32.8916Z" fill="#31A8FF"/>
</svg>
