<svg width="72" height="72" viewBox="0 0 72 72" fill="none" xmlns="http://www.w3.org/2000/svg">
<path d="M12.1528 0H59.8473C67.0819 0 72.9292 5.84721 72.9292 13.0819V58.9181C72.9292 66.1528 67.0819 72 59.8473 72H12.1528C4.91814 72 -0.929077 66.1528 -0.929077 58.9181V13.0819C-0.929077 5.84721 4.91814 0 12.1528 0Z" fill="#00005B"/>
<path d="M16.6125 50.4941V18.83C16.6125 18.607 16.7117 18.4831 16.9099 18.4831C17.4302 18.4831 17.9257 18.4831 18.6442 18.4584C19.3875 18.4336 20.1556 18.4336 20.9732 18.4088C21.8156 18.384 22.7075 18.384 23.649 18.3592C24.5905 18.3345 25.532 18.3345 26.4488 18.3345C28.9759 18.3345 31.0571 18.6318 32.7915 19.276C34.3276 19.7963 35.7399 20.6634 36.9044 21.8032C37.8954 22.7942 38.6635 23.9835 39.159 25.3214C39.6298 26.6098 39.8775 27.9477 39.8775 29.3104C39.8775 31.9615 39.2581 34.1418 38.0441 35.8513C36.8053 37.5857 35.0957 38.874 33.0888 39.5926C31.0076 40.3606 28.6786 40.6332 26.1762 40.6332C25.4329 40.6332 24.9374 40.6332 24.6401 40.6084C24.3428 40.5836 23.8968 40.5836 23.3269 40.5836V50.4694C23.3517 50.6924 23.2031 50.8658 22.9801 50.8906H16.9842C16.7364 50.8906 16.6125 50.7667 16.6125 50.4941ZM23.3022 24.4294V34.7612C23.7234 34.786 24.1446 34.8107 24.4914 34.8107H26.1267C27.3159 34.8107 28.53 34.6373 29.6697 34.2657C30.6607 33.9931 31.5279 33.3985 32.1969 32.6304C32.841 31.8623 33.1384 30.8217 33.1384 29.459C33.1631 28.5175 32.9154 27.5513 32.4198 26.7089C31.8995 25.916 31.1563 25.2966 30.2643 24.9498C29.1246 24.479 27.8858 24.3056 26.6222 24.3303C25.8293 24.3303 25.1108 24.3303 24.541 24.3551C23.9711 24.3799 23.5251 24.4047 23.3022 24.4294Z" fill="#9999FF"/>
<path d="M44.1638 26.2134H49.5402C49.8376 26.2134 50.0853 26.4364 50.1844 26.709C50.2835 26.9567 50.3331 27.2045 50.3579 27.477C50.4074 27.7743 50.4817 28.1212 50.5065 28.4185C50.5313 28.7654 50.5561 29.137 50.5561 29.5335C51.4728 28.4681 52.5877 27.5761 53.8513 26.8824C55.2636 26.0895 56.8988 25.6931 58.534 25.6931C58.757 25.6683 58.9305 25.817 58.9552 26.04V32.1597C58.9552 32.4075 58.8066 32.5066 58.4597 32.5066C57.3448 32.4818 56.2051 32.5562 55.1397 32.8039C54.2477 32.9774 53.3806 33.2747 52.5629 33.6463C51.9683 33.9189 51.4232 34.2905 51.002 34.786V50.4694C51.002 50.7668 50.8782 50.8906 50.6056 50.8906H44.5354C44.2877 50.9154 44.0647 50.7668 44.0399 50.519V33.349C44.0399 32.6057 44.0399 31.8376 44.0151 31.0448C43.9903 30.252 43.9903 29.4343 43.9656 28.6415C43.9656 27.923 43.916 27.254 43.8417 26.5603C43.8169 26.4116 43.8912 26.263 44.0647 26.2134C44.0894 26.1886 44.139 26.1886 44.1638 26.2134Z" fill="#9999FF"/>
</svg>
