<svg width="72" height="72" viewBox="0 0 72 72" fill="none" xmlns="http://www.w3.org/2000/svg">
<g clip-path="url(#clip0_484_293)">
<path d="M11.2464 -0.00854492H60.7538C66.9698 -0.00854492 72.0001 5.0218 72.0001 11.2378V60.7621C72.0001 66.978 66.9698 72.0084 60.7538 72.0084H11.2464C5.03049 72.0084 0.00012207 66.978 0.00012207 60.7621V11.2547C0.00012207 5.0218 5.03049 -0.00854492 11.2464 -0.00854492Z" fill="#330000"/>
<path d="M35.111 43.8251H24.1188L21.8661 51.1589C21.7984 51.4129 21.5613 51.5992 21.2903 51.5823H15.7179C15.3961 51.5823 15.2945 51.4129 15.3792 51.0572L24.864 23.6529C24.9656 23.365 25.0503 23.0431 25.1519 22.6705C25.2874 22.1455 25.3383 21.5865 25.3383 21.0446C25.3213 20.8921 25.423 20.7397 25.5923 20.7058C25.6262 20.7058 25.6431 20.7058 25.677 20.7058H33.2479C33.4681 20.7058 33.6036 20.7905 33.6205 20.9429L44.4434 51.0911C44.545 51.4129 44.4434 51.5654 44.1555 51.5654H37.9734C37.7532 51.5823 37.55 51.4468 37.4992 51.2266L35.111 43.8251ZM25.7787 38.7609H33.8407C33.6544 38.1342 32.9939 36.6606 32.7398 35.8646C32.4858 35.0685 32.1301 34.4419 31.8591 33.5442C31.5712 32.6465 31.2832 31.7319 30.9953 30.8342C30.7073 29.9366 30.4533 29.0558 30.1992 28.209C29.9621 27.3621 29.7419 26.6 29.5556 25.9055H29.5048C29.2338 27.1928 28.8951 28.463 28.5055 29.7164C28.0651 31.1391 27.6078 32.5957 27.1505 34.0862C26.6932 35.5936 26.219 37.5075 25.7787 38.7609Z" fill="#FF9A00"/>
<path d="M50.9134 25.7021C49.931 25.736 48.9826 25.3634 48.2881 24.652C47.6106 23.9237 47.255 22.9414 47.2888 21.9421C47.255 20.9428 47.6445 19.9943 48.3559 19.2999C49.0672 18.6224 50.0157 18.2498 50.9981 18.2836C51.9974 18.2328 52.9797 18.6055 53.6911 19.2999C54.3517 20.0112 54.7073 20.9597 54.6734 21.9421C54.7073 22.9414 54.3516 23.9237 53.6572 24.652C52.9289 25.3634 51.9296 25.7529 50.9134 25.7021ZM47.8308 51.1249V29.3775C47.8308 29.0896 47.9494 28.9541 48.2034 28.9541H53.6064C53.8605 28.9541 53.979 29.0896 53.979 29.3775V51.1249C53.979 51.4467 53.8605 51.5991 53.6064 51.5991H48.2543C47.9833 51.5991 47.8308 51.4467 47.8308 51.1249Z" fill="#FF9A00"/>
</g>
<defs>
<clipPath id="clip0_484_293">
<rect width="72" height="72" rx="16" fill="white"/>
</clipPath>
</defs>
</svg>
