<svg width="72" height="72" viewBox="0 0 72 72" fill="none" xmlns="http://www.w3.org/2000/svg">
<path d="M11.1753 -0.383789H60.6827C66.8986 -0.383789 71.929 4.64656 71.929 10.8625V60.3868C71.929 66.6028 66.8986 71.6331 60.6827 71.6331H11.1753C4.95932 71.6331 -0.0710449 66.6028 -0.0710449 60.3868V10.8794C-0.0710449 4.64656 4.95932 -0.383789 11.1753 -0.383789Z" fill="#49021F"/>
<path d="M25.5041 20.9233V50.7497C25.5041 51.0715 25.3686 51.2239 25.0807 51.2239H19.6439C19.3898 51.2239 19.2712 51.0715 19.2712 50.7497V20.9233C19.2712 20.6692 19.4067 20.5507 19.6947 20.5507H25.1315C25.3178 20.5337 25.4872 20.6523 25.5041 20.8386C25.521 20.8555 25.521 20.8894 25.5041 20.9233Z" fill="#FF3366"/>
<path d="M43.1866 51.8673C41.0017 51.9012 38.8338 51.4439 36.8352 50.5293C34.9721 49.6655 33.4308 48.2767 32.3807 46.5152C31.229 44.4658 30.67 42.1285 30.7547 39.7742C30.7378 37.5893 31.2967 35.4383 32.3807 33.5413C33.4986 31.6105 35.1245 30.0184 37.0892 28.9683C39.3927 27.7657 41.9671 27.1729 44.5585 27.2576C44.711 27.2576 44.9312 27.2576 45.1852 27.2745C45.4393 27.2915 45.9982 27.3084 46.3369 27.3423V18.3486C46.3369 18.1285 46.4386 18.0099 46.6249 18.0099H52.1464C52.2819 17.993 52.4174 18.0946 52.4343 18.2301C52.4343 18.247 52.4343 18.2809 52.4343 18.2978V46.0579C52.4343 46.5999 52.4513 47.1927 52.5021 47.8194C52.5529 48.446 52.5868 49.0219 52.6206 49.53C52.6376 49.7333 52.519 49.9196 52.3327 50.0043C50.8592 50.6479 49.3179 51.1221 47.7427 51.427C46.2353 51.7149 44.711 51.8504 43.1866 51.8673ZM46.3369 45.9563V32.9654C45.9982 32.8977 45.6425 32.8469 45.3038 32.8299C44.982 32.7961 44.6602 32.7791 44.3214 32.7791C43.1697 32.7622 42.018 33.0332 40.9848 33.5413C38.7152 34.6253 37.3433 36.9796 37.5127 39.4863C37.4957 40.5194 37.6651 41.5526 38.0038 42.5349C38.2918 43.3141 38.7491 44.0424 39.3419 44.6352C39.9008 45.1772 40.5952 45.5836 41.3405 45.8208C42.1365 46.0748 42.9664 46.2103 43.7963 46.1934C44.2367 46.1934 44.6601 46.1764 45.0328 46.1426C45.4731 46.1256 45.9135 46.0579 46.3369 45.9563Z" fill="#FF3366"/>
</svg>
