<svg width="33" height="33" viewBox="0 0 33 33" fill="none" xmlns="http://www.w3.org/2000/svg">
<path d="M16.1758 4.49992H16.6998C14.9869 6.09153 13.8859 8.23305 13.5882 10.5522C13.2905 12.8714 13.8148 15.2216 15.0701 17.1942C16.3254 19.1669 18.2323 20.6373 20.4593 21.3499C22.6863 22.0625 25.0925 21.9721 27.2598 21.0946C26.4261 23.1006 25.0635 24.8426 23.3174 26.1349C21.5713 27.4272 19.5071 28.2213 17.345 28.4324C15.183 28.6436 13.0042 28.2639 11.041 27.3338C9.07784 26.4037 7.40397 24.9582 6.19793 23.1514C4.9919 21.3446 4.29895 19.2443 4.193 17.0746C4.08704 14.9048 4.57206 12.747 5.59631 10.8313C6.62056 8.91557 8.14563 7.31382 10.0088 6.1969C11.872 5.07998 14.0035 4.48978 16.1758 4.48926V4.49992Z" stroke="black" stroke-width="2" stroke-linecap="round" stroke-linejoin="round"/>
</svg>
