<svg width="72" height="72" viewBox="0 0 72 72" fill="none" xmlns="http://www.w3.org/2000/svg">
<rect width="72" height="72" rx="16" fill="white"/>
<path fill-rule="evenodd" clip-rule="evenodd" d="M23.4291 23.0039C24.6782 24.0138 25.13 23.9341 27.4688 23.7746L49.5011 22.4458C49.9795 22.4458 49.5808 21.9674 49.4214 21.9142L45.7538 19.2831C45.0628 18.7516 44.106 18.1137 42.3253 18.2732L21.0106 19.8412C20.2398 19.921 20.0804 20.3196 20.3993 20.612L23.4291 23.0039ZM24.7579 28.1332V51.3084C24.7579 52.5575 25.3692 53.0093 26.7778 52.9296L50.9894 51.521C52.398 51.4413 52.5575 50.5908 52.5575 49.5809V26.5652C52.5575 25.5553 52.1588 24.9972 51.3083 25.0769L26.007 26.5652C25.0768 26.6449 24.7579 27.1233 24.7579 28.1332ZM48.6507 29.3824C48.8101 30.0734 48.6507 30.7909 47.9597 30.8707L46.7903 31.1099V48.2255C45.7803 48.757 44.8501 49.0759 44.0528 49.0759C42.8037 49.0759 42.4848 48.6773 41.5546 47.5079L33.927 35.5217V47.1092L36.3455 47.6408C36.3455 47.6408 36.3455 49.0494 34.4054 49.0494L29.0368 49.3683C28.8774 49.0494 29.0368 48.2786 29.5684 48.1192L30.9769 47.7205V32.4121L29.0368 32.2527C28.8774 31.5617 29.276 30.5518 30.3657 30.472L36.1329 30.0734L44.0794 42.1925V31.482L42.0596 31.2428C41.9001 30.3923 42.5379 29.7544 43.3087 29.6747L48.6507 29.3824ZM19.2299 17.7151L41.4217 16.0939C44.1326 15.8547 44.8501 16.0141 46.5511 17.2633L53.6206 22.2332C54.7899 23.0836 55.1886 23.3228 55.1886 24.253V51.5476C55.1886 53.2485 54.5773 54.2584 52.398 54.4179L26.6449 55.986C24.9971 56.0657 24.2264 55.8265 23.3759 54.7368L18.1403 47.9597C17.2101 46.7106 16.8114 45.7804 16.8114 44.6907V20.4259C16.8114 19.0173 17.4492 17.8745 19.2299 17.7151Z" fill="black"/>
</svg>
