<svg width="32" height="33" viewBox="0 0 32 33" fill="none" xmlns="http://www.w3.org/2000/svg">
<path d="M4 16.688H5.33333M16 4.68805V6.02138M26.6667 16.688H28M16 27.3547V28.6881M7.46667 8.15472L8.4 9.08805M24.5333 8.15472L23.6 9.08805M23.6 24.2881L24.5333 25.2214M8.4 24.2881L7.46667 25.2214M10.6667 16.688C10.6667 18.1025 11.2286 19.4591 12.2288 20.4593C13.229 21.4595 14.5855 22.0214 16 22.0214C17.4145 22.0214 18.771 21.4595 19.7712 20.4593C20.7714 19.4591 21.3333 18.1025 21.3333 16.688C21.3333 15.2736 20.7714 13.917 19.7712 12.9168C18.771 11.9166 17.4145 11.3547 16 11.3547C14.5855 11.3547 13.229 11.9166 12.2288 12.9168C11.2286 13.917 10.6667 15.2736 10.6667 16.688Z" stroke="#FAFAFA" stroke-width="2" stroke-linecap="round" stroke-linejoin="round"/>
</svg>
