<svg width="32" height="33" viewBox="0 0 32 33" fill="none" xmlns="http://www.w3.org/2000/svg">
<path d="M28 28.6881L20 20.688M4 14.0214C4 15.2471 4.24141 16.4607 4.71046 17.5931C5.1795 18.7255 5.86699 19.7544 6.73367 20.621C7.60035 21.4877 8.62925 22.1752 9.76162 22.6443C10.894 23.1133 12.1077 23.3547 13.3333 23.3547C14.559 23.3547 15.7727 23.1133 16.905 22.6443C18.0374 22.1752 19.0663 21.4877 19.933 20.621C20.7997 19.7544 21.4872 18.7255 21.9562 17.5931C22.4253 16.4607 22.6667 15.2471 22.6667 14.0214C22.6667 12.7957 22.4253 11.582 21.9562 10.4497C21.4872 9.3173 20.7997 8.2884 19.933 7.42172C19.0663 6.55504 18.0374 5.86755 16.905 5.39851C15.7727 4.92946 14.559 4.68805 13.3333 4.68805C12.1077 4.68805 10.894 4.92946 9.76162 5.39851C8.62925 5.86755 7.60035 6.55504 6.73367 7.42172C5.86699 8.2884 5.1795 9.3173 4.71046 10.4497C4.24141 11.582 4 12.7957 4 14.0214Z" stroke="#FEFEFE" stroke-width="2" stroke-linecap="round" stroke-linejoin="round"/>
</svg>
